<?xml version="1.0" encoding="UTF-8" standalone="no"?>
<svg
   xmlns:dc="http://purl.org/dc/elements/1.1/"
   xmlns:cc="http://creativecommons.org/ns#"
   xmlns:rdf="http://www.w3.org/1999/02/22-rdf-syntax-ns#"
   xmlns:svg="http://www.w3.org/2000/svg"
   xmlns="http://www.w3.org/2000/svg"
   id="svg4268"
   xml:space="preserve"
   style="enable-background:new 0 0 100 100;"
   viewBox="0 0 100 125"
   y="0px"
   x="0px"
   version="1.1"><metadata
     id="metadata4292"><rdf:RDF><cc:Work
         rdf:about=""><dc:format>image/svg+xml</dc:format><dc:type
           rdf:resource="http://purl.org/dc/dcmitype/StillImage" /><dc:title /></cc:Work></rdf:RDF></metadata><defs
     id="defs4290" /><style
     id="style4270"
     type="text/css">
	.st0{fill-rule:evenodd;clip-rule:evenodd;}
</style><g
     id="g4272"><path
       id="path4274"
       d="M59.1,44.8c0.9-1.1,1.7-2.2,2.3-2.9c0.6-0.7,1-1.1,1.6-1.3c0.6-0.3,1.3-0.5,1.9-0.2c0.6,0.3,1,1,1,2   c0,0.9-0.3,2-0.4,3.1l0,0c-0.1,1,0,2,0.2,2.7c0.2,0.7,0.3,1.2,0.7,1.9c0.4,0.7,0.9,1.6,1.7,2.2c0.7,0.6,1.6,1,2.1,1.6   c0.5,0.6,0.6,1.4,0.3,1.9c-0.3,0.6-0.9,0.9-1.6,1.1c-0.6,0.1-1.3,0.1-2.4-0.1c-1.1-0.2-2.7-0.5-4.2-0.9c0,0.2-0.1,0.3-0.1,0.5   c1.8,0.5,3.5,1,4.8,1.2c1.3,0.2,2,0.1,2.7-0.1c0.6-0.2,1.2-0.6,1.5-1.2c0.3-0.6,0.5-1.3,0.3-2c-0.2-0.7-0.6-1.5-1.2-2.2   c-0.6-0.7-1.3-1.2-1.7-1.8c-0.5-0.5-0.7-1.1-0.9-1.7c-0.2-0.6-0.4-1.3-0.5-2.1c-0.1-0.8,0-1.8,0-2.7c0-0.9-0.1-1.8-0.5-2.6   c-0.3-0.8-0.9-1.5-1.6-1.8c-0.7-0.3-1.4-0.2-2.1,0.1c-0.6,0.3-1.2,0.8-1.9,1.7c-0.7,0.8-1.5,2-2.4,3.1c0.1,0.1,0.2,0.2,0.3,0.3   L59.1,44.8z"
       class="st0" /><path
       id="path4276"
       d="M95,39c-0.1-0.5-0.5-0.8-1.6-1.3c-1-0.4-2.6-1-4.2-1.2c-1.4-0.2-2.7-0.2-4.1-0.2c0,0,0,0,0,0   c0-0.1,0-0.1,0-0.2c-0.1-1.4-0.5-2.6-1.8-4c-1.2-1.4-3.3-2.9-5.2-4.1c-1.9-1.3-3.8-2.3-5.5-3.5c-1.7-1.2-3.4-2.4-5.1-3.9   c-1.7-1.5-3.4-3.2-5-4.3c-1.6-1.1-3.1-1.6-4.8-1.6c-0.7,0-1.4,0.1-2.1,0.3c-0.1-0.4-0.2-0.7-0.4-1.2c-0.4-0.9-0.9-2.1-1.6-3.2   c-0.7-1.1-1.6-2.3-2.2-3l-3.3-0.1c-0.7,0.8-1.7,2.2-2.4,3.6v0c-0.6,1.2-1,2.5-1.4,3.8c0,0,0,0,0,0c-0.1,0-0.1,0-0.2-0.1   c-1.3-0.3-2.7-0.3-4.3,0.4c-1.7,0.7-3.7,2.2-5.5,3.7c-1.8,1.4-3.4,2.9-5,4.2c-1.6,1.3-3.3,2.5-5.3,3.6c-1.9,1.1-4.1,2.3-5.6,3.5   c-1.4,1.1-2.2,2.2-2.8,3.5c0,0.1-0.1,0.2-0.1,0.3c0,0.1-0.1,0.2-0.1,0.2c0,0,0,0,0,0c0,0,0,0,0,0c-0.2,0.6-0.3,1.4-0.4,2.1   c0,0.3,0,0.6,0,0.8c0-0.3,0-0.6,0-0.9c-0.4,0-0.8,0-1.3,0c-1,0.1-2.2,0.2-3.5,0.5c-1.3,0.3-2.6,0.8-3.6,1.2   c-0.9,0.4-1.4,0.7-1.6,1.2c-0.2,0.4,0,1,0.5,1.9c0.6,0.9,1.5,2.3,2.7,3.4c1,1,2.1,1.8,3.2,2.5c0,0,0,0,0,0c0,0.1-0.1,0.1-0.1,0.2   c-0.7,1.2-1.1,2.4-0.9,4.3c0.2,1.8,0.9,4.2,1.8,6.4c0.8,2.2,1.7,4.1,2.4,6c0.7,2,1.3,4,1.8,6.1c0.5,2.2,0.9,4.6,1.6,6.4   c0.7,1.8,1.6,3.1,3,4.1c0.6,0.4,1.2,0.7,1.8,1c0,0,0,0,0,0c-0.1,0.4-0.3,0.7-0.4,1.2c-0.3,1-0.5,2.2-0.6,3.5   c-0.1,1.3-0.1,2.8,0,3.8c0.1,1,0.3,1.6,0.6,1.9c0.4,0.3,0.9,0.3,2,0.1c1.1-0.2,2.7-0.7,4.1-1.5c1.2-0.6,2.3-1.4,3.4-2.2   c0,0,0,0,0,0c0,0.1,0.1,0.1,0.1,0.2c0.9,1,2,1.8,3.8,2.2c1.8,0.4,4.3,0.4,6.6,0.3c2.3-0.1,4.4-0.3,6.5-0.4c2.1-0.1,4.2,0,6.4,0.2   c2.2,0.2,4.6,0.6,6.6,0.5c1.9-0.1,3.4-0.6,4.8-1.6c0.6-0.4,1.1-0.9,1.5-1.4c0,0,0,0,0,0c0.3,0.2,0.6,0.5,1,0.7v0   c0.8,0.6,2,1.1,3.2,1.6c1.2,0.5,2.6,0.9,3.6,1.1c1,0.2,1.6,0.2,2,0c0.4-0.2,0.6-0.8,0.7-1.9c0.1-1.1,0.1-2.8-0.2-4.3   c-0.2-1.3-0.6-2.6-1.1-3.9c0.1,0,0.1,0,0.2-0.1c1.3-0.5,2.3-1.3,3.2-2.9c0.9-1.6,1.7-4,2.3-6.2c0.6-2.2,1-4.3,1.6-6.3   c0.6-2,1.3-4,2.2-6c0.9-2.1,2-4.2,2.5-6.1c0.5-1.9,0.5-3.4,0-5c-0.2-0.6-0.5-1.3-0.9-1.9c0.3-0.2,0.6-0.5,1-0.7v0   c0.8-0.6,1.7-1.5,2.5-2.5c0.9-1,1.7-2.2,2.2-3C94.9,40,95.1,39.5,95,39z M57.6,43.4c1.1-1.5,2.2-3,2.8-3.9c0.6-0.9,0.7-1.3,0.8-1.8   c0.1-0.5,0.2-1.2,0.2-2.2c0-1-0.3-2.3-0.9-3.1c-0.6-0.9-1.8-1.3-2.9-1.5c-1.1-0.2-2.2-0.1-3.3,0.1c-0.3,0.1-0.7,0.2-1,0.2   c0-1.5,0.1-3,0.3-4.4c0.3-1.6,0.8-3,1.5-4.1c0.7-1,1.5-1.6,2.2-1.7c0.8-0.1,1.5,0.2,2.4,1.1c0.9,0.9,1.9,2.5,3.1,3.9   c1.1,1.4,2.4,2.7,3.5,3.7c1.2,1,2.3,1.7,3.6,2.3c1.3,0.6,2.8,1,4.3,1.4c1.5,0.4,2.9,0.8,3.9,1.4c1,0.5,1.6,1.2,1.7,2   c0.1,0.8-0.1,1.7-0.9,2.5c-0.7,0.8-2,1.6-3.6,2.3c-1.5,0.7-3.4,1.4-5.2,2.1c0-0.2-0.1-0.5-0.1-0.7c-0.2-1.1-0.5-2.4-1-3.5   c-0.6-1.1-1.4-2-2.4-2.4c-1-0.4-2.2-0.4-3.2-0.1c-0.9,0.3-1.6,0.8-2.6,1.9C60,40.1,58.8,41.8,57.6,43.4   C57.6,43.5,57.6,43.5,57.6,43.4c0.2,0.1,0.4,0.3,0.5,0.4c1-1.4,2-2.7,2.8-3.7c0.8-1,1.5-1.6,2.4-1.9c0.9-0.3,1.9-0.3,2.8,0.3   c0.9,0.5,1.6,1.5,2,2.7c0.4,1.1,0.4,2.4,0.5,3.6c0.1,1.2,0.4,2.3,0.8,3.2c0.4,1,0.8,1.8,1.3,2.5c0.5,0.7,1.2,1.4,1.6,2.3   c0.4,0.9,0.6,2,0.5,2.9c-0.1,0.9-0.6,1.5-1.2,2c-0.6,0.5-1.4,0.8-2.1,0.9c-0.7,0.2-1.3,0.2-2.6-0.1c-1.2-0.3-3.1-0.9-5-1.4   c-0.1,0.2-0.1,0.4-0.2,0.6c0,0,0,0,0,0c0.1-0.2,0.2-0.4,0.2-0.6c0.1-0.2,0.1-0.5,0.2-0.7c0-0.2,0.1-0.3,0.1-0.5   c0.9-3.8-0.1-7.9-3-10.8l-0.3-0.3c-0.1-0.1-0.2-0.2-0.3-0.3c-0.2-0.2-0.4-0.3-0.5-0.5C57.9,43.7,57.8,43.6,57.6,43.4   c-0.2-0.1-0.3-0.2-0.5-0.3c-0.2-0.1-0.4-0.3-0.6-0.4c-0.2-0.1-0.3-0.2-0.5-0.3l0,0c-3.6-1.8-7.8-1.6-11.2,0.6   c-0.9-1.3-1.8-2.7-2.4-3.6c-0.6-0.9-0.7-1.4-0.8-2c-0.1-0.6,0-1.4,0.4-1.8c0.4-0.5,1.3-0.6,2.2-0.4c0.9,0.3,1.8,1,2.8,1.4h0   c0.9,0.4,1.9,0.6,2.7,0.6c0.7,0.1,1.3,0.1,2-0.1c0.8-0.1,1.8-0.4,2.6-0.9c0.8-0.5,1.4-1.2,2.1-1.5c0.7-0.3,1.5-0.2,1.9,0.3   c0.5,0.4,0.6,1.2,0.5,1.8c-0.1,0.7-0.3,1.2-0.8,2.2c-0.5,0.9-1.2,2.2-2,3.5c0.2,0.1,0.3,0.2,0.5,0.3c0.9-1.4,1.9-2.8,2.4-3.9   c0.6-1.1,0.7-1.8,0.7-2.5c0-0.7-0.2-1.3-0.7-1.8c-0.4-0.5-1.1-0.8-1.8-0.9c-0.8-0.1-1.6,0.1-2.4,0.5c-0.8,0.3-1.6,0.8-2.2,1.1   c-0.7,0.3-1.2,0.4-1.9,0.4c-0.6,0-1.3,0-2.1-0.2c-0.8-0.2-1.7-0.5-2.6-0.8c-0.9-0.3-1.7-0.4-2.6-0.3c-0.9,0.1-1.7,0.4-2.2,1   c-0.5,0.5-0.6,1.3-0.5,2c0.1,0.7,0.4,1.4,1.1,2.4c0.6,1,1.6,2.4,2.6,3.7c0,0,0,0,0,0c-0.2,0.1-0.4,0.3-0.5,0.4   c-0.2,0.1-0.3,0.3-0.5,0.4c-0.1,0.1-0.3,0.3-0.4,0.4l0,0l-0.5,0.5c-1.3-1.6-2.5-3.2-3.5-4.2c-1-1-1.6-1.4-2.3-1.6   c-0.7-0.2-1.3-0.2-1.9,0.1c-0.6,0.3-1.1,0.8-1.4,1.5c-0.3,0.7-0.4,1.6-0.3,2.5c0.1,0.9,0.3,1.7,0.4,2.4c0.1,0.7,0,1.3-0.2,1.9   c-0.2,0.6-0.4,1.2-0.8,1.9c-0.4,0.7-1,1.4-1.6,2.2c-0.5,0.8-0.9,1.5-1.1,2.4c-0.2,0.8-0.1,1.7,0.3,2.4c0.4,0.6,1,1,1.7,1.1   c0.7,0.1,1.5,0,2.5-0.2c1.1-0.3,2.4-0.7,3.8-1.1c0-0.2-0.1-0.4-0.1-0.6c-1.4,0.4-2.8,0.8-3.7,1c-1,0.2-1.5,0.2-2.1,0.1   c-0.6-0.1-1.3-0.4-1.6-0.9c-0.3-0.6-0.2-1.4,0.3-2.2c0.5-0.8,1.5-1.4,2.2-2.2c0.7-0.8,1.1-1.6,1.4-2.3c0.3-0.7,0.5-1.2,0.5-2   c0.1-0.8,0.2-1.8-0.1-2.8c-0.2-0.9-0.7-1.7-0.8-2.5c-0.1-0.8,0.3-1.5,0.9-1.8l0,0c0.6-0.3,1.3-0.2,1.9,0.1c0.6,0.3,1.1,0.7,1.9,1.6   c0.8,0.9,2.1,2.2,3.3,3.6l0,0l0,0l-0.9,0.9c-2.6,2.6-3.7,6.1-3.3,9.4c0,0.2,0,0.4,0.1,0.6c0,0.2,0.1,0.5,0.1,0.7c0,0.1,0,0.1,0,0.2   c0-0.1,0-0.1,0-0.2c-1.6,0.5-3.2,1.1-4.5,1.4c-1.3,0.3-2.2,0.4-3.1,0.2c-0.9-0.3-1.7-0.9-2.1-1.9c-0.4-0.9-0.4-2.2,0-3.3   c0.4-1.1,1.1-2.2,1.7-3.2c0.6-1,1-2.1,1.3-3c0.3-1,0.4-1.9,0.4-2.8l0,0c0-0.9-0.2-1.8,0-2.8c0.2-1,0.7-2,1.3-2.6   c0.6-0.6,1.3-0.9,2.1-0.9c0.8,0,1.6,0.2,2.2,0.5c0.7,0.3,1.2,0.7,2.1,1.7c0.9,1,2.2,2.7,3.4,4.4l0,0c0.1-0.1,0.3-0.3,0.4-0.4   c-1.3-1.7-2.5-3.5-3.3-4.5c-0.8-1-1.1-1.2-1.6-1.5c-0.5-0.3-1.1-0.6-2-0.8c-0.9-0.3-2.2-0.5-3.3-0.1c-1,0.4-1.8,1.3-2.3,2.3   c-0.5,1-0.8,2.1-0.9,3.1c0,0.4-0.1,0.7-0.1,1.1c-1.4-0.5-2.8-1-4.1-1.7c-1.4-0.8-2.6-1.7-3.4-2.7c-0.8-1-1.1-1.9-1-2.7   c0.1-0.8,0.6-1.4,1.8-2c1.2-0.6,3-1.1,4.7-1.7c1.7-0.6,3.3-1.4,4.6-2.2c1.3-0.8,2.4-1.7,3.3-2.7c1-1.1,1.8-2.4,2.7-3.7   c0.9-1.3,1.7-2.5,2.5-3.3c0.8-0.8,1.6-1.1,2.4-1.1c0.8,0.1,1.5,0.6,2.1,1.6c0.5,1,0.9,2.4,1.1,4.1c0.2,1.7,0.3,3.6,0.4,5.6   c-0.2,0-0.5-0.1-0.7-0.1c-1.1-0.2-2.4-0.3-3.6-0.1c-1.2,0.2-2.3,0.7-3,1.6c-0.7,0.8-1.1,2-1.1,3c0,1,0.3,1.8,1.1,3.2   c0.8,1.4,2.2,3.3,3.6,5.2c0,0,0,0,0,0c0.2-0.1,0.3-0.3,0.5-0.4c-1.1-1.6-2.3-3.1-3.1-4.4c-0.8-1.2-1.2-2.1-1.2-3   c0-0.9,0.3-1.9,1.1-2.6c0.8-0.7,2-1.1,3.2-1c1.2,0,2.4,0.4,3.6,0.6c1.2,0.2,2.3,0.3,3.3,0.3c1,0,1.9-0.2,2.8-0.5   c0.9-0.3,1.7-0.7,2.7-0.9c1-0.1,2.1,0,2.9,0.4c0.8,0.4,1.3,1,1.5,1.7c0.3,0.7,0.3,1.6,0.2,2.3c-0.1,0.7-0.3,1.3-0.9,2.4   c-0.6,1-1.6,2.5-2.7,4C57.2,43.2,57.4,43.3,57.6,43.4L57.6,43.4z M35.4,68.5c-0.9-0.3-1.8-0.4-2.7-0.9c-0.9-0.5-1.7-1.2-2.1-2   c-0.4-0.8-0.4-1.5-0.2-2.3c0.2-0.7,0.7-1.4,1.2-2c0.5-0.5,1-0.9,2.1-1.4c1.1-0.5,2.8-1.1,4.5-1.7c0,0,0,0,0,0   c0.1,0.2,0.2,0.4,0.3,0.7c-1.6,0.6-3.2,1.2-4.3,1.7c-1.1,0.6-1.7,1.1-2,1.6c-0.4,0.6-0.6,1.2-0.5,1.9c0.1,0.6,0.4,1.3,1,1.8   c0.6,0.5,1.4,0.9,2.3,1.1c0.9,0.2,1.7,0.2,2.4,0.4c0.7,0.2,1.2,0.4,1.7,0.8c0.5,0.4,1.1,0.8,1.6,1.4c0.5,0.6,1,1.4,1.6,2.2   c0.6,0.7,1.2,1.4,1.9,1.8c0.7,0.4,1.6,0.6,2.3,0.5c0.7-0.2,1.3-0.7,1.6-1.3c0.3-0.6,0.5-1.4,0.6-2.5c0.1-1.1,0.1-2.6,0.1-4   c0.2,0,0.4,0,0.7,0c0,1.7,0,3.5-0.1,4.8c-0.1,1.3-0.3,2.2-0.8,3c-0.5,0.8-1.4,1.3-2.4,1.4c-1,0.1-2.2-0.3-3.2-1   c-1-0.7-1.7-1.7-2.5-2.6c-0.8-0.9-1.7-1.6-2.5-2.2l0,0C37.1,69.2,36.3,68.8,35.4,68.5z M38,57.7c0,0,0-0.1,0-0.1   C38,57.6,38,57.6,38,57.7C38,57.7,38,57.7,38,57.7z M41.3,49.9c-0.6-0.1-1.2-0.1-1.7-0.2c0.4-0.7,0.8-1.4,1.3-2.1v0   C41.1,48.4,41.2,49.1,41.3,49.9z M41.5,50.9L41.5,50.9c0.1,0.7,0.2,1.3,0.3,1.9c0.1,0.8,0.2,1.5,0.3,2.3c-1.2-0.1-2.5-0.2-3.7-0.3   c0-1.4,0.2-2.8,0.7-4.1C39.9,50.7,40.7,50.8,41.5,50.9z M46.4,43.1c0.1,0.7,0.3,1.4,0.4,2.1c-0.9-0.2-1.9-0.4-2.8-0.6   C44.7,44,45.6,43.5,46.4,43.1z M47,46L47,46c0.2,1.1,0.4,2.1,0.6,3.2c0.1,0.5,0.2,1.1,0.2,1.6c-0.4-0.1-0.9-0.2-1.3-0.2   c-1.4-0.2-2.8-0.4-4.2-0.6c-0.2-1.1-0.4-2.1-0.7-3.1l1.6-1.6C44.5,45.5,45.8,45.8,47,46z M61.5,55.4c-0.5-0.3-1-0.5-1.6-0.8v0   c0-1.3,0-2.6-0.1-4c0-0.3,0-0.5-0.1-0.8c0.6,0.2,1.2,0.5,1.7,0.7C61.8,52.2,61.8,53.8,61.5,55.4z M59.7,59.3c0-1.2,0.1-2.4,0.1-3.6   c0.5,0.2,0.9,0.4,1.4,0.6C60.9,57.4,60.4,58.4,59.7,59.3z M59.6,48.9c-0.1-0.9-0.2-1.7-0.3-2.6c0.9,1,1.5,2.2,1.9,3.4   C60.6,49.4,60.1,49.2,59.6,48.9z M60.8,59.3C60.8,59.3,60.8,59.3,60.8,59.3c1.5,0.5,3,1.1,4,1.5c1,0.4,1.4,0.7,1.9,1.2   c0.4,0.5,0.8,1.1,0.8,1.7c-0.1,0.6-0.7,1.3-1.6,1.6h0c-0.9,0.3-2,0.3-3,0.5c-1,0.2-1.9,0.7-2.5,1c-0.6,0.4-1.1,0.7-1.6,1.3   c-0.5,0.6-1.2,1.4-1.6,2.3c-0.4,0.9-0.4,1.8-0.8,2.5c-0.4,0.6-1.1,1-1.7,0.9c-0.6-0.1-1.2-0.6-1.5-1.2c-0.3-0.6-0.5-1.2-0.6-2.3   c-0.2-1.1-0.3-2.7-0.5-4.3c2-0.5,3.9-1.5,5.5-3.1l1.8-1.8C59.8,60.6,60.3,60,60.8,59.3z M49.1,65.4l0-2.1c0.6,0.2,1.2,0.4,1.7,0.5   c1.2,0.4,1.9,0.6,2.6,0.8C52,65.2,50.5,65.5,49.1,65.4z M46.9,61.8c-1.1-0.3-2.2-0.6-3.4-0.8l0-0.4c-0.1-1.2-0.2-2.7-0.3-4.3l0-0.1   l0,0c0.3,0,0.6,0.1,0.8,0.1c1.4,0.2,2.8,0.6,4.3,1c0,1.6,0,3,0,4.2l0,0.6C47.9,62.1,47.4,61.9,46.9,61.8z M48.3,63.1l0,2.3   c-1.6-0.2-3.2-0.7-4.6-1.6c0-0.6,0-1.2,0-1.9c0,0,0,0,0,0v0c0,0,0,0,0,0c0.9,0.2,1.7,0.4,2.6,0.6C46.9,62.7,47.6,62.9,48.3,63.1z    M44.6,55.4c-0.5-0.1-1-0.2-1.5-0.2c-0.1-1.2-0.3-2.5-0.6-3.7c0-0.2-0.1-0.3-0.1-0.5c1,0.1,2,0.3,3.1,0.4c0.8,0.1,1.6,0.3,2.4,0.4   c0.1,1.3,0.3,2.7,0.3,4l0,0.5C47.1,56,45.8,55.7,44.6,55.4z M42.8,63.1c-0.3-0.3-0.6-0.5-0.9-0.8L41.6,62c-0.2-0.2-0.5-0.5-0.7-0.8   c0,0,0,0,0,0h0c0,0,0,0,0,0c0.6,0.1,1.2,0.3,1.8,0.4L42.8,63.1z M42.6,60.8c-0.8-0.2-1.6-0.3-2.5-0.5c-0.9-1.4-1.5-3-1.7-4.6   c1.2,0.1,2.4,0.2,3.7,0.4c0.1,0.6,0.1,1.2,0.2,1.8C42.5,58.8,42.6,59.8,42.6,60.8z M38.7,59.5C38.7,59.5,38.7,59.5,38.7,59.5   c0.5,1.1,1.3,2.2,2.2,3.1l0.3,0.3c1.9,1.9,4.4,3,6.9,3.3c0,0,0,0,0,0c0,1.4-0.1,2.8-0.2,3.8c-0.1,1-0.2,1.5-0.5,2   c-0.3,0.6-0.8,1.1-1.4,1.2c-0.6,0.1-1.4-0.3-2-1c-0.6-0.7-0.9-1.8-1.4-2.7c-0.5-0.9-1.2-1.6-1.8-2.1c-0.6-0.5-1-0.8-1.7-1.1h0   c-0.7-0.3-1.7-0.7-2.6-0.8c-1-0.1-1.9,0.1-2.6,0c-0.7-0.2-1.3-0.7-1.4-1.4c-0.1-0.6,0.2-1.3,0.7-1.8c0.4-0.5,1-0.8,1.9-1.3   C36,60.7,37.4,60.1,38.7,59.5z M48.7,50.5c-0.2-1.5-0.5-3-0.7-4.2c0.5,0.1,0.9,0.2,1.3,0.3c1.5,0.3,2.9,0.7,4.3,1.1   c0.3,1.4,0.4,2.9,0.5,4.5l0,0.3c-0.4-0.1-0.8-0.3-1.2-0.4c-1.3-0.4-2.7-0.7-4.1-1L48.7,50.5z M51.8,52.8c0.9,0.2,1.7,0.5,2.4,0.7   c0,1.4,0,3,0,4.6l0,0.3c-0.9-0.4-2-0.8-3.1-1.1c-0.6-0.2-1.3-0.4-1.9-0.6c0-0.4,0-0.8,0-1.2c0-1-0.1-2.2-0.2-3.3   C49.9,52.3,50.9,52.5,51.8,52.8z M49.2,57.6c0.4,0.1,0.8,0.2,1.2,0.4c1.4,0.4,2.7,0.9,3.7,1.3c-0.1,1.5-0.1,3.1-0.2,4.7   c-0.3-0.1-0.5-0.1-1.7-0.5c-0.7-0.3-1.8-0.6-3.1-1c0-0.9,0-1.8,0-2.6C49.2,59.1,49.2,58.4,49.2,57.6L49.2,57.6z M55,57.6   c0-1.4,0.1-2.6,0-3.8c0.6,0.2,1.2,0.4,1.7,0.6c0.8,0.3,1.5,0.6,2.2,0.9c0,0.3,0,0.6,0,0.9c0,1.6-0.1,2.9-0.1,4.2l-0.1,0.1   c-0.6-0.4-1.2-0.7-2.4-1.3c-0.4-0.2-0.9-0.4-1.4-0.6C54.9,58.3,55,57.9,55,57.6L55,57.6z M55.7,60c1.3,0.6,1.8,0.9,2.3,1.2   l-1.1,1.1c-0.7,0.7-1.5,1.3-2.3,1.7c0.1-1.5,0.1-3,0.2-4.4C55.2,59.8,55.5,59.9,55.7,60z M58,53.8c-0.9-0.4-1.9-0.7-3-1.1   c0-0.2,0-0.4,0-0.6v0c-0.1-1.6-0.2-2.9-0.4-4.1l0.6,0.2c1.2,0.4,2.3,0.9,3.6,1.4c0,0.5,0.1,1,0.1,1.5c0.1,1.1,0.1,2.2,0.1,3.3   C58.7,54.1,58.3,54,58,53.8z M56.7,47.7c-0.7-0.3-1.5-0.5-2.3-0.8c0,0,0,0,0,0l0,0c0,0,0,0,0,0c-0.2-0.9-0.3-1.6-0.5-2.3   c-0.2-0.9-0.5-1.6-0.8-2.2c1.8,0.4,3.6,1.3,5,2.7c0.2,1.1,0.3,2.2,0.5,3.3C58,48.2,57.4,48,56.7,47.7z M53.5,46.7   c-0.8-0.2-1.6-0.4-2.5-0.6c-1-0.2-2.1-0.5-3.2-0.7c-0.2-1-0.4-1.8-0.6-2.6h0c1.6-0.5,3.3-0.7,5-0.5C52.7,43.7,53.2,45.2,53.5,46.7z    M39.6,73.8c0.2,0.2,0.3,0.3,0.5,0.5c0.8,0.8,1.8,1.7,2.9,2.2c1.1,0.5,2.3,0.8,3.4,0.5c1.1-0.3,2.1-1,2.7-1.8   c0.6-0.8,0.8-1.6,1-3.1c0.1-1.5,0.1-3.6,0.1-5.8c0,0,0,0,0,0l0,0c0,1.9,0,3.9,0.1,5c0.1,1.2,0.2,1.5,0.4,2c0.2,0.5,0.5,1.1,1.1,1.8   c0.6,0.8,1.5,1.7,2.6,2c1,0.3,2.2,0,3.2-0.5c1-0.5,1.9-1.2,2.6-2c0.2-0.3,0.5-0.5,0.7-0.8c0.9,1.2,1.7,2.5,2.3,3.7   c0.7,1.5,1.1,2.9,1.2,4.2c0.1,1.2-0.2,2.2-0.8,2.7c-0.6,0.6-1.3,0.7-2.6,0.5c-1.3-0.2-3-0.9-4.8-1.3c-1.7-0.5-3.5-0.8-5-0.9   c-1.5-0.1-2.9,0-4.3,0.3c-1.4,0.3-2.9,0.9-4.3,1.4c-1.4,0.5-2.8,1-4,1.2c-1.1,0.2-2,0-2.6-0.6c-0.6-0.5-0.9-1.4-0.8-2.5   c0.1-1.1,0.7-2.4,1.5-4C37.4,77.1,38.5,75.4,39.6,73.8z M59.6,72.3c-0.5,0.7-0.9,1.6-1.6,2.3c-0.7,0.7-1.7,1.2-2.6,1.3   c-0.9,0.2-1.6-0.1-2.2-0.5c-0.6-0.4-1.1-1.1-1.5-1.7c-0.4-0.6-0.6-1.2-0.7-2.5c-0.1-1.2-0.1-3.1-0.2-5c0,0,0,0,0,0   c0.2,0,0.5-0.1,0.7-0.1c0,0,0,0,0,0c0.1,1.8,0.1,3.6,0.3,4.9c0.2,1.3,0.5,1.9,0.9,2.5c0.4,0.5,1,0.9,1.6,1.1c0.6,0.1,1.3,0,2-0.4   c0.7-0.4,1.2-1.1,1.7-1.8c0.5-0.7,0.8-1.6,1.1-2.2c0.4-0.6,0.8-1,1.3-1.4c0.5-0.4,1.1-0.8,1.8-1.1c0.8-0.3,1.7-0.6,2.5-0.9   c0.9-0.3,1.7-0.7,2.3-1.3c0.6-0.6,1.1-1.3,1.2-2.1c0.1-0.7-0.3-1.4-0.8-1.9c-0.5-0.5-1.2-0.9-2.3-1.3c-1.1-0.4-2.6-1-4.2-1.5   c0.1-0.2,0.2-0.4,0.3-0.6c0,0,0,0,0,0c1.8,0.6,3.5,1.1,4.8,1.7c1.3,0.5,2.1,1,2.7,1.7c0.6,0.7,0.8,1.7,0.6,2.8c-0.2,1-1,2-1.9,2.7   v0c-1,0.7-2.2,1.1-3.3,1.6c-1.1,0.5-2,1.1-2.8,1.7C60.8,70.9,60.1,71.6,59.6,72.3z M49.1,31.8c-0.4,0-0.9-0.1-1.4-0.2l-0.1-3.5   c-0.1-1.3-0.1-2.5-0.4-4C47,22.7,46.5,21,45.7,20c-0.8-1-2-1.5-3-1.4l0,0c-1.1,0.1-2,0.6-2.9,1.5c-0.9,0.9-1.9,2.2-3.1,3.7   c-1.2,1.5-2.7,3.1-4.4,4.4c-1.7,1.3-3.7,2.3-5.6,3c-1.9,0.8-3.6,1.4-4.9,2.2c-1.2,0.8-1.9,1.8-2,2.9c-0.1,1.1,0.2,2.4,1.1,3.6   c0.9,1.2,2.4,2.2,4.1,3c1.4,0.7,3,1.2,4.6,1.7c0,0.4,0,0.7-0.1,1c0,0.3-0.1,0.5-0.1,0.7c-1.9-0.6-3.7-1.2-5.4-1.9   c-2-0.8-3.7-1.6-4.9-2.7c-1.2-1.1-2-2.5-2.3-3.8c-0.3-1.4-0.1-2.7,0.7-4v0c0.8-1.3,2.1-2.5,3.7-3.6c1.7-1,3.6-1.9,5.5-2.9   c1.8-1,3.5-2.2,5.2-3.7c1.7-1.5,3.4-3.3,4.9-4.5c1.5-1.3,2.7-2,3.8-2.4c1.2-0.4,2.3-0.5,3.2-0.3c0.9,0.2,1.6,0.5,2.3,1.1   c0,0,0.1,0.1,0.1,0.1c0.7,0.7,1.3,1.6,1.7,2.7c0.4,1.1,0.7,2.4,0.9,4.5c0.2,1.9,0.2,4.4,0.3,6.9C49.3,31.8,49.2,31.8,49.1,31.8z    M8.5,42.3c-0.6-0.8-1.1-1.5-1.2-2c-0.1-0.5,0.2-0.7,1.1-1c0.9-0.3,2.4-0.7,3.8-0.9v0c1-0.1,2-0.2,2.9-0.2c0,0,0,0,0,0   c0.1,0.4,0.1,0.9,0.3,1.3c0.5,1.5,1.7,2.7,3.1,3.6c1.4,0.9,3,1.5,5.1,2.2c1.5,0.5,3.2,1.1,5,1.7c-1.3-0.4-2.6-0.8-3.9-1.2   c-2-0.6-4-1-5.8-1.2c-1.8-0.2-3.3-0.2-4.6,0.3c-0.7,0.3-1.3,0.7-1.8,1.2c0,0,0,0,0,0c-0.6-0.4-1.2-0.9-1.8-1.4   C9.9,43.8,9.1,43,8.5,42.3z M87.1,55.8L87.1,55.8c-0.7,1.8-1.8,3.7-2.7,5.6c-0.9,1.9-1.5,3.9-2,6.1c-0.5,2.2-0.8,4.7-1.3,6.6   c-0.4,1.9-1,3.2-1.7,4.2c-0.7,1-1.6,1.7-2.4,2.2c-0.9,0.4-1.8,0.6-2.7,0.5c-1-0.1-2-0.5-3-1.1c-1-0.6-2-1.5-3.4-3.1   c-1.2-1.4-2.8-3.4-4.3-5.4c-0.2,0.1-0.4,0.2-0.5,0.3c0.9,1.3,1.9,2.5,2.9,3.8c1.3,1.6,2.7,3.2,3.9,4.4c1.3,1.2,2.5,2.1,3.9,2.5   c0.7,0.2,1.5,0.2,2.2,0.1c0,0,0,0,0,0c0.2,0.7,0.5,1.4,0.7,2.2c0.3,1,0.4,2.1,0.5,3.1c0.1,1,0,1.9-0.2,2.3   c-0.2,0.4-0.6,0.4-1.5,0.1c-0.9-0.3-2.3-0.8-3.6-1.5c-0.9-0.5-1.7-1-2.5-1.5c0.2-0.4,0.4-0.8,0.5-1.2c0.5-1.5,0.2-3.2-0.4-4.7   c-0.6-1.5-1.6-3-2.9-4.8c-1-1.5-2.3-3.1-3.5-4.9c0,0-0.1,0-0.1,0.1c-0.1,0.1-0.2,0.2-0.3,0.3c1.2,1.6,2.3,3.2,3.2,4.7   c1.1,1.8,2,3.5,2.3,5.1c0.3,1.6,0.2,3.2-0.4,4.4c-0.6,1.3-1.6,2.2-2.9,2.9c-1.4,0.6-3.2,0.8-5.1,0.7c-2-0.1-4.1-0.6-6.2-0.9   c-2.1-0.3-4.2-0.3-6.4-0.1c-2.3,0.2-4.7,0.6-6.6,0.8c-1.9,0.2-3.3,0-4.5-0.3v0c-1.2-0.4-2.1-0.9-2.8-1.6c-0.7-0.7-1.1-1.5-1.3-2.4   c-0.2-0.9-0.1-2,0.1-3.2c0.3-1.1,0.8-2.4,1.9-4.2c1-1.6,2.4-3.7,3.8-5.8c-0.2-0.1-0.3-0.3-0.5-0.4c0,0,0,0,0,0   c-0.9,1.3-1.8,2.6-2.7,3.9c-1.1,1.7-2.2,3.5-3,5.1c-0.8,1.6-1.2,3-1.1,4.4c0,0.7,0.3,1.4,0.6,2.1c-0.6,0.5-1.2,0.9-1.9,1.3   c-0.9,0.6-1.9,1.1-2.8,1.5c-0.9,0.4-1.8,0.6-2.3,0.6c-0.5-0.1-0.6-0.4-0.6-1.4c0-0.9,0-2.5,0.3-3.9h0c0.2-1,0.4-1.9,0.7-2.9   c0.4,0.1,0.9,0.1,1.3,0.1c1.6,0,3.1-0.7,4.4-1.8c1.3-1.1,2.3-2.4,3.6-4.2c1.1-1.4,2.3-3.1,3.5-4.8c-0.2-0.1-0.3-0.2-0.5-0.3   c-1.2,1.6-2.3,3.2-3.4,4.5c-1.4,1.7-2.7,3-4.1,3.8c-1.4,0.8-3,1.1-4.4,1c-1.4-0.1-2.6-0.8-3.6-1.9c-1-1.1-1.8-2.8-2.3-4.7l0,0   c-0.5-1.9-0.7-4-1.1-6.1c-0.4-2.1-1-4-1.9-6.1c-0.9-2.1-2.1-4.3-2.8-6.1c-0.7-1.8-1.1-3.2-1.1-4.4c0-1.2,0.2-2.3,0.7-3.2   c0.5-0.9,1.1-1.5,1.9-2c0.8-0.5,1.9-0.8,3.1-0.8c1.2-0.1,2.5,0.1,4.6,0.5c1.8,0.4,4.2,1.1,6.7,1.8c0.1-0.2,0.2-0.4,0.2-0.6   c0,0,0,0,0,0c-0.1,0.2-0.1,0.4-0.2,0.6c0,0.1-0.1,0.2-0.1,0.3c-0.2,0.4-0.4,0.8-0.6,1.2c-0.1,0.3-0.3,0.5-0.4,0.8   c-0.1,0.2-0.2,0.4-0.3,0.6c-0.5,1-1,2.2-1.2,3.4c-0.2,1.2,0,2.4,0.6,3.4c0.6,1,1.6,1.6,2.5,2c0.9,0.3,1.8,0.3,3.2,0   c1-0.2,2.2-0.6,3.5-1c-1.1,0.4-2.1,0.7-2.7,1c-1,0.4-1.4,0.6-1.8,1c-0.4,0.4-0.9,0.8-1.4,1.7c-0.5,0.8-1.1,2-1.1,3.1   c0,1.1,0.7,2.1,1.5,2.9c0.8,0.8,1.7,1.4,2.7,1.9c0.3,0.1,0.7,0.3,1,0.4c0.3,0.1,0.6,0.2,0.9,0.3c0.3,0.1,0.7,0.3,1,0.4   c0.2,0.1,0.5,0.2,0.6,0.3c0.2,0.1,0.3,0.2,0.5,0.3c0,0,0,0,0,0c0.1,0.1,0.3,0.2,0.4,0.4l0,0c0.1,0.1,0.2,0.2,0.3,0.2   c0.3,0.3,0.6,0.6,1,1c0,0,0,0,0,0L37,76c-0.7,1.1-1.4,2.1-2,3.4c-0.6,1.3-1.2,2.9-1.2,4.3c0,1.3,0.7,2.4,1.6,2.9   c0.9,0.6,2,0.7,3.3,0.5l0,0c1.3-0.2,2.8-0.7,4.6-1.2c1.8-0.5,4-1,6.1-1c2.2,0,4.3,0.4,6.3,0.8c2,0.5,3.8,1,5.2,1.1   c1.5,0.1,2.6-0.3,3.4-1.1c0.8-0.8,1.3-2.1,1.2-3.6c-0.1-1.5-0.6-3.2-1.5-4.8c-0.7-1.4-1.7-2.7-2.7-4.1c0,0,0,0,0,0   c0.2-0.3,0.5-0.6,0.7-0.8c0.2-0.2,0.3-0.4,0.5-0.5c0.1-0.1,0.3-0.2,0.5-0.4c0.2-0.1,0.3-0.2,0.5-0.3c0.1-0.1,0.2-0.1,0.3-0.2   c0.4-0.2,0.8-0.4,1.2-0.6c0.3-0.1,0.5-0.3,0.8-0.4c0.2-0.1,0.4-0.2,0.6-0.3c1-0.5,2.1-1.2,3-2.1c0.8-0.9,1.4-1.9,1.5-3.1   c0.1-1.1-0.3-2.3-0.9-3.1c-0.6-0.8-1.3-1.3-2.7-1.9c-0.7-0.3-1.5-0.6-2.4-0.9c0.7,0.2,1.3,0.4,1.8,0.5c1.2,0.3,1.6,0.3,2.1,0.3   c0.5-0.1,1.2-0.2,2.1-0.5c0.9-0.4,2.1-0.9,2.7-1.8c0.6-0.9,0.7-2.1,0.5-3.2c-0.2-1.1-0.6-2.1-1.1-3.1c-0.2-0.3-0.4-0.6-0.6-0.9   c0,0,0,0,0,0c1.4-0.4,2.9-0.8,4.2-1c1.6-0.2,3.1-0.1,4.3,0.2c1.2,0.3,2,0.9,2.4,1.6c0.4,0.7,0.3,1.5-0.3,2.7   c-0.6,1.1-1.8,2.6-2.8,4.1c-1,1.5-1.8,3.1-2.4,4.5c-0.6,1.4-0.9,2.7-1.1,4.2c-0.1,1.4-0.1,3,0,4.5c0.1,1.5,0.1,3-0.1,4.2   c-0.2,1.1-0.6,1.9-1.3,2.3c-0.7,0.4-1.6,0.4-2.6-0.1c-1-0.5-2.1-1.4-3.3-2.7c-1.1-1.2-2.4-2.8-3.6-4.3c-0.3,0.1-0.5,0.3-0.8,0.4   l2.2,2.7c0.8,1,1.6,2,2.6,3c1,1,2.4,2.1,3.7,2.5c1.3,0.4,2.5,0,3.3-0.6c0.8-0.7,1.2-1.7,1.5-3c0.2-1.3,0.2-2.9,0.3-4.8   c0.1-1.9,0.3-4.1,0.9-6.2c0.6-2.1,1.7-4,2.7-5.7v0c1.1-1.7,2.1-3.3,2.6-4.6c0.5-1.4,0.5-2.5-0.1-3.6c-0.6-1-1.6-1.8-3-2.2   c-1.4-0.4-3.2-0.4-5.1,0c-1.5,0.3-3.1,0.8-4.7,1.3c-0.2-0.3-0.4-0.6-0.6-0.9c-0.1-0.2-0.2-0.4-0.3-0.7l0,0c0,0,0,0,0,0   c0-0.1,0-0.1-0.1-0.2c0,0.1,0,0.1,0.1,0.2l0,0c1.9-0.6,3.8-1.2,5.5-1.6c2.1-0.5,3.9-0.8,5.5-0.7c1.6,0.2,3.1,0.8,4.1,1.7   c1,0.9,1.7,2.2,1.8,3.7C88.2,52.2,87.8,54,87.1,55.8z M92.3,41c-0.5,0.8-1.5,2-2.5,3c-0.7,0.7-1.5,1.3-2.2,1.9c0,0,0,0,0,0   c-0.3-0.3-0.6-0.6-1-0.8c-1.3-0.9-2.9-1.2-4.6-1.1c-1.6,0.1-3.3,0.6-5.4,1.3c-1.7,0.5-3.7,1.2-5.7,1.8c0,0.1,0,0.1,0,0.2   c0-0.1,0-0.1-0.1-0.2c-0.1-0.2-0.1-0.4-0.2-0.6c0-0.1,0-0.2-0.1-0.3c-0.1-0.4-0.1-0.9-0.2-1.4l3.3-1.2c1.2-0.5,2.4-0.9,3.7-1.6   c1.3-0.7,2.7-1.7,3.5-2.8c0.7-1.1,0.8-2.3,0.4-3.3c-0.4-1-1.2-1.7-2.4-2.3c-1.2-0.6-2.7-1.1-4.4-1.8c-1.8-0.7-3.8-1.6-5.6-2.8   c-1.8-1.2-3.3-2.8-4.6-4.4c-1.3-1.5-2.5-3-3.6-3.9c-1.1-0.9-2.3-1.3-3.4-1c-1.1,0.2-2.2,1-3.1,2.2c-0.8,1.2-1.4,2.9-1.6,4.8   c-0.2,1.6-0.2,3.2-0.2,4.9c-0.4,0.1-0.7,0.2-1,0.3c-0.3,0.1-0.5,0.1-0.7,0.1h0c0,0,0,0-0.1,0c-0.2,0-0.3,0-0.5,0   c-0.2,0-0.4,0-0.6,0c0.2,0,0.4,0,0.6,0c0,0,0,0,0,0c0,0,0,0,0,0c0-1.6,0-3.2-0.1-4.7c-0.1-2.1-0.3-4.1-0.6-5.9   c-0.3-1.7-0.8-3.2-1.7-4.3c-0.5-0.6-1.1-1-1.7-1.4c0.2-0.7,0.5-1.4,0.8-2.2c0.4-1,0.9-2,1.4-2.8c0.5-0.9,1.1-1.6,1.5-1.8   c0.4-0.2,0.7,0,1.3,0.8c0.6,0.8,1.4,2,2.1,3.3c0.4,0.9,0.8,1.8,1.1,2.7c-0.4,0.2-0.8,0.4-1.1,0.7c-1.3,1-2.1,2.4-2.5,4   c-0.4,1.6-0.5,3.3-0.5,5.5c0,1.8,0,3.9,0,6c0.2,0,0.3,0,0.5,0c0,0,0.1,0,0.1,0c0-2,0-3.9,0.1-5.7c0.1-2.1,0.4-4,1.1-5.5   c0.7-1.5,1.7-2.7,2.9-3.4c1.2-0.7,2.6-0.9,4.1-0.6c1.5,0.3,3.1,1.2,4.6,2.4c1.5,1.2,2.9,2.9,4.5,4.3c1.5,1.4,3.2,2.7,5.2,3.8   c2,1.2,4.2,2.2,5.8,3.3c1.7,1,2.7,1.9,3.5,2.9c0.7,1,1.2,2,1.3,3c0.1,1,0,1.9-0.4,2.7c-0.4,0.9-1.1,1.7-2,2.5   c-0.9,0.8-2.1,1.4-4,2.3c-1.7,0.7-4.1,1.6-6.5,2.5c0,0.2,0.1,0.4,0.2,0.6c1.5-0.5,3-1,4.5-1.6c1.9-0.7,3.8-1.5,5.4-2.4   c1.6-0.9,2.8-1.7,3.5-2.9h0c0.4-0.6,0.6-1.3,0.8-2.1c0.8,0,1.5,0,2.3,0c1.1,0.1,2.2,0.2,3.1,0.5c1,0.2,1.8,0.6,2.2,0.9   C93,39.8,92.9,40.2,92.3,41z"
       class="st0" /><polygon
       id="polygon4278"
       points="57.6,43.5 57.6,43.5 57.6,43.5  "
       class="st0" /><ellipse
       id="ellipse4280"
       ry="0"
       rx="0"
       cy="44.2"
       cx="43.1"
       class="st0"
       transform="matrix(0.9665 -0.2568 0.2568 0.9665 -9.9057 12.5564)" /><path
       id="path4282"
       d="M31.4,73.5c-1.2,1.1-2.5,2-3.6,2.4c-1.1,0.4-2.1,0.4-2.8,0.1c-0.7-0.3-1.1-1.1-1.3-2.3c-0.2-1.3-0.1-3.2-0.2-5   c-0.1-1.8-0.3-3.6-0.7-5.1c-0.4-1.5-0.8-2.8-1.6-4c-0.7-1.2-1.7-2.5-2.7-3.7c-1-1.2-1.9-2.4-2.4-3.4c-0.5-1-0.6-1.9-0.3-2.6   c0.3-0.7,1.1-1.3,2.2-1.5c1.1-0.2,2.5-0.1,4.3,0.2c1.6,0.3,3.6,0.8,5.5,1.4c0.1-0.3,0.3-0.5,0.4-0.8l-3.4-0.9l0,0   c-1.3-0.4-2.4-0.7-3.9-0.9c-1.4-0.2-3.2-0.3-4.4,0.2c-1.3,0.5-2,1.4-2.3,2.5c-0.3,1,0,2.1,0.6,3.3c0.6,1.2,1.5,2.5,2.5,4   c1,1.6,2.1,3.5,2.9,5.5c0.7,2,1,4.2,1.2,6.2c0.2,2,0.2,3.9,0.6,5.3c0.4,1.4,1.1,2.3,2.1,2.8c1,0.5,2.4,0.5,3.8,0   c1.4-0.5,2.8-1.6,4.1-3c1.1-1.1,2.1-2.5,3.1-3.9c-0.3-0.1-0.6-0.2-0.9-0.3C33.3,71.3,32.4,72.5,31.4,73.5z"
       class="st0" /></g></svg>